<svg width="60" height="72" viewBox="0 0 60 72" fill="none" xmlns="http://www.w3.org/2000/svg">
<path d="M58.8 69.6H55.2V64.8H49.2V52.5336C49.2 49.2936 47.5896 46.284 44.8932 44.4864L32.1636 36L44.8932 27.5136C47.5896 25.716 49.2 22.7064 49.2 19.4664V7.2H55.2V2.4H58.8C59.4624 2.4 60 1.8636 60 1.2C60 0.5364 59.4624 0 58.8 0H55.2H54H6H4.8H1.2C0.5376 0 0 0.5364 0 1.2C0 1.8636 0.5376 2.4 1.2 2.4H4.8V7.2H10.8V19.4664C10.8 22.7064 12.4104 25.716 15.1068 27.5136L27.8364 36L15.1068 44.4864C12.4104 46.284 10.8 49.2936 10.8 52.5336V64.8H4.8V69.6H1.2C0.5376 69.6 0 70.1364 0 70.8C0 71.4636 0.5376 72 1.2 72H4.8H6H54H55.2H58.8C59.4624 72 60 71.4636 60 70.8C60 70.1364 59.4624 69.6 58.8 69.6ZM16.4376 25.5168C14.4108 24.1644 13.2 21.9024 13.2 19.4664V7.2H46.8V19.4664C46.8 21.9024 45.5892 24.1644 43.5624 25.5168L30 34.5576L16.4376 25.5168ZM13.2 52.5336C13.2 50.0976 14.4108 47.8356 16.4376 46.4832L30 37.4424L43.5624 46.4832C45.5892 47.8356 46.8 50.0976 46.8 52.5336V64.8H13.2V52.5336Z" fill="#2B3C4E"/>
</svg>
